<svg width="60" height="60" viewBox="0 0 60 60" fill="none" xmlns="http://www.w3.org/2000/svg">
<path d="M9.0625 48.75C12.6869 48.75 15.625 45.8119 15.625 42.1875C15.625 38.5631 12.6869 35.625 9.0625 35.625C5.43813 35.625 2.5 38.5631 2.5 42.1875C2.5 45.8119 5.43813 48.75 9.0625 48.75Z" stroke="#140CA3" stroke-width="2.5" stroke-linecap="round" stroke-linejoin="round"/>
<path d="M52.1875 48.75C55.8119 48.75 58.75 45.8119 58.75 42.1875C58.75 38.5631 55.8119 35.625 52.1875 35.625C48.5631 35.625 45.625 38.5631 45.625 42.1875C45.625 45.8119 48.5631 48.75 52.1875 48.75Z" stroke="#140CA3" stroke-width="2.5" stroke-linecap="round" stroke-linejoin="round"/>
<path d="M30.625 48.75C34.2494 48.75 37.1875 45.8119 37.1875 42.1875C37.1875 38.5631 34.2494 35.625 30.625 35.625C27.0006 35.625 24.0625 38.5631 24.0625 42.1875C24.0625 45.8119 27.0006 48.75 30.625 48.75Z" stroke="#140CA3" stroke-width="2.5" stroke-linecap="round" stroke-linejoin="round"/>
<path d="M19.845 58.1249C19.2381 56.4772 18.2607 54.991 16.9883 53.7809C15.7159 52.5708 14.1824 51.6692 12.5063 51.1457C10.8302 50.6221 9.05628 50.4907 7.32134 50.7615C5.58639 51.0323 3.93685 51.6981 2.5 52.7074" stroke="#140CA3" stroke-width="2.5" stroke-linecap="round" stroke-linejoin="round"/>
<path d="M41.4075 58.125C42.0141 56.4773 42.9912 54.9911 44.2634 53.7809C45.5356 52.5708 47.0688 51.6692 48.7447 51.1457C50.4206 50.6222 52.1944 50.4907 53.9292 50.7615C55.664 51.0323 57.3133 51.6981 58.75 52.7075" stroke="#140CA3" stroke-width="2.5" stroke-linecap="round" stroke-linejoin="round"/>
<path d="M41.4075 58.1248C40.5911 55.9231 39.1202 54.0242 37.1927 52.6831C35.2651 51.3421 32.9732 50.6232 30.625 50.6232C28.2769 50.6232 25.985 51.3421 24.0574 52.6831C22.1298 54.0242 20.659 55.9231 19.8425 58.1248" stroke="#140CA3" stroke-width="2.5" stroke-linecap="round" stroke-linejoin="round"/>
<path d="M36.25 28.125C36.25 28.125 38.125 18.75 45.625 16.875" stroke="#140CA3" stroke-width="2.5" stroke-linecap="round" stroke-linejoin="round"/>
<path d="M51.25 15H58.75" stroke="#140CA3" stroke-width="2.5" stroke-linecap="round" stroke-linejoin="round"/>
<path d="M55 11.25V18.75" stroke="#140CA3" stroke-width="2.5" stroke-linecap="round" stroke-linejoin="round"/>
<path d="M25 28.125C25 28.125 23.125 18.75 15.625 16.875" stroke="#140CA3" stroke-width="2.5" stroke-linecap="round" stroke-linejoin="round"/>
<path d="M10 15H2.5" stroke="#140CA3" stroke-width="2.5" stroke-linecap="round" stroke-linejoin="round"/>
<path d="M6.25 11.25V18.75" stroke="#140CA3" stroke-width="2.5" stroke-linecap="round" stroke-linejoin="round"/>
<path d="M26.875 5.625H34.375" stroke="#140CA3" stroke-width="2.5" stroke-linecap="round" stroke-linejoin="round"/>
<path d="M30.625 1.875V9.375" stroke="#140CA3" stroke-width="2.5" stroke-linecap="round" stroke-linejoin="round"/>
<path d="M30.625 28.125V16.875" stroke="#140CA3" stroke-width="2.5" stroke-linecap="round" stroke-linejoin="round"/>
</svg>
