<svg width="60" height="60" viewBox="0 0 60 60" fill="none" xmlns="http://www.w3.org/2000/svg">
<path d="M58.75 24.845C58.7505 32.8212 55.9261 40.5397 50.7776 46.6318C45.6292 52.7239 38.4896 56.7956 30.625 58.125C22.7604 56.7956 15.6208 52.7239 10.4723 46.6318C5.32394 40.5397 2.49952 32.8212 2.5 24.845V5.625C2.5 4.63044 2.89509 3.67661 3.59835 2.97335C4.30161 2.27009 5.25544 1.875 6.25 1.875H55C55.9946 1.875 56.9484 2.27009 57.6516 2.97335C58.3549 3.67661 58.75 4.63044 58.75 5.625V24.845Z" stroke="#140CA3" stroke-width="2.5" stroke-linecap="round" stroke-linejoin="round"/>
<path d="M2.5 13.125H58.75" stroke="#140CA3" stroke-width="2.5" stroke-linecap="round" stroke-linejoin="round"/>
<path d="M43.75 24.3725L30.075 38.0475C29.9011 38.2216 29.6945 38.3598 29.4672 38.4541C29.2398 38.5483 28.9961 38.5969 28.75 38.5969C28.5039 38.5969 28.2602 38.5483 28.0328 38.4541C27.8055 38.3598 27.5989 38.2216 27.425 38.0475L23.125 33.75" stroke="#140CA3" stroke-width="2.5" stroke-linecap="round" stroke-linejoin="round"/>
</svg>
